<svg width="280" height="280" viewBox="0 0 280 280" xmlns="http://www.w3.org/2000/svg">
  <g fill="none" stroke="#252323" stroke-width="2" stroke-linecap="round" stroke-linejoin="round" opacity="0.05">
    <!-- medical cross -->
    <g transform="translate(26 30) scale(1.05)">
      <path d="M12 5v14M5 12h14" />
    </g>
    <!-- heart -->
    <g transform="translate(168 22) scale(0.95) rotate(-8)">
      <path d="M19 14c1.49-1.46 3-3.21 3-5.5A5.5 5.5 0 0 0 16.5 3c-1.76 0-3 .5-4.5 2-1.5-1.5-2.74-2-4.5-2A5.5 5.5 0 0 0 2 8.5c0 2.29 1.49 4.04 3 5.5l7 7Z" />
    </g>
    <!-- activity / pulse -->
    <g transform="translate(96 86) scale(1.2)">
      <path d="M22 12h-4l-3 9L9 3l-3 9H2" />
    </g>
    <!-- pill -->
    <g transform="translate(206 120) scale(0.95) rotate(18)">
      <path d="m10.5 20.5 10-10a4.95 4.95 0 1 0-7-7l-10 10a4.95 4.95 0 1 0 7 7Z" />
      <path d="m8.5 8.5 7 7" />
    </g>
    <!-- droplet -->
    <g transform="translate(34 168) scale(1.05)">
      <path d="M12 22a7 7 0 0 0 7-7c0-2-1-3.9-3-5.5s-3.5-4-4-6.5c-.5 2.5-2 4.9-4 6.5C6 11.1 5 13 5 15a7 7 0 0 0 7 7Z" />
    </g>
    <!-- stethoscope (simplified) -->
    <g transform="translate(150 168) scale(1.05) rotate(6)">
      <path d="M4 3v6a6 6 0 0 0 12 0V3" />
      <path d="M4 3H2M16 3h2M10 21a3 3 0 0 0 3-3v-3" />
      <circle cx="20" cy="14" r="2" />
    </g>
    <!-- medical cross (small) -->
    <g transform="translate(232 232) scale(0.8)">
      <path d="M12 5v14M5 12h14" />
    </g>
    <!-- activity (small, lower-left) -->
    <g transform="translate(14 244) scale(0.9)">
      <path d="M22 12h-4l-3 9L9 3l-3 9H2" />
    </g>
  </g>
</svg>
