<svg width="200" height="200" viewBox="0 0 200 200" xmlns="http://www.w3.org/2000/svg">
  <g fill="none" stroke="#252323" stroke-width="2" stroke-linecap="round" stroke-linejoin="round" opacity="0.05">
    <!-- row 1 -->
    <g transform="translate(20 16) scale(0.7)">
      <path d="M12 5v14M5 12h14" />
    </g>
    <g transform="translate(90 10) scale(0.7) rotate(-8)">
      <path d="M19 14c1.49-1.46 3-3.21 3-5.5A5.5 5.5 0 0 0 16.5 3c-1.76 0-3 .5-4.5 2-1.5-1.5-2.74-2-4.5-2A5.5 5.5 0 0 0 2 8.5c0 2.29 1.49 4.04 3 5.5l7 7Z" />
    </g>
    <g transform="translate(150 18) scale(0.7)">
      <path d="M22 12h-4l-3 9L9 3l-3 9H2" />
    </g>
    <!-- row 2 -->
    <g transform="translate(28 80) scale(0.7) rotate(18)">
      <path d="m10.5 20.5 10-10a4.95 4.95 0 1 0-7-7l-10 10a4.95 4.95 0 1 0 7 7Z" />
      <path d="m8.5 8.5 7 7" />
    </g>
    <g transform="translate(95 78) scale(0.7) rotate(6)">
      <path d="M4 3v6a6 6 0 0 0 12 0V3" />
      <path d="M4 3H2M16 3h2M10 21a3 3 0 0 0 3-3v-3" />
      <circle cx="20" cy="14" r="2" />
    </g>
    <g transform="translate(162 84) scale(0.7)">
      <path d="M12 22a7 7 0 0 0 7-7c0-2-1-3.9-3-5.5s-3.5-4-4-6.5c-.5 2.5-2 4.9-4 6.5C6 11.1 5 13 5 15a7 7 0 0 0 7 7Z" />
    </g>
    <!-- row 3 -->
    <g transform="translate(18 150) scale(0.7)">
      <path d="M22 12h-4l-3 9L9 3l-3 9H2" />
    </g>
    <g transform="translate(90 154) scale(0.7)">
      <path d="M12 5v14M5 12h14" />
    </g>
    <g transform="translate(156 148) scale(0.7) rotate(-12)">
      <path d="m10.5 20.5 10-10a4.95 4.95 0 1 0-7-7l-10 10a4.95 4.95 0 1 0 7 7Z" />
      <path d="m8.5 8.5 7 7" />
    </g>
  </g>
</svg>
