<svg width="122" height="147" viewBox="0 0 122 147" fill="none" xmlns="http://www.w3.org/2000/svg">
<path d="M80.834 68C78.6249 68 76.834 66.2091 76.834 64V47.485C76.834 45.2758 75.0432 43.485 72.834 43.485H56C53.7909 43.485 52 41.6941 52 39.485V28.515C52 26.3059 53.7909 24.515 56 24.515H72.834C75.0432 24.515 76.834 22.7242 76.834 20.515V4C76.834 1.79086 78.6249 0 80.834 0H93.166C95.3751 0 97.166 1.79086 97.166 4V20.515C97.166 22.7242 98.9568 24.515 101.166 24.515H118C120.209 24.515 122 26.3059 122 28.515V39.485C122 41.6941 120.209 43.485 118 43.485H101.166C98.9568 43.485 97.166 45.2758 97.166 47.485V64C97.166 66.2091 95.3751 68 93.166 68H80.834Z" fill="#E54B4B"></path>
<path d="M2 146.984C0.895432 146.984 0 146.088 0 144.984V131.96C0 130.855 0.895431 129.96 2 129.96H13.952C15.232 129.96 16.256 129.533 17.024 128.68C17.8773 127.912 18.304 126.931 18.304 125.736V57.3359C18.304 56.2313 19.1994 55.3359 20.304 55.3359H36.144C37.2486 55.3359 38.144 56.2313 38.144 57.3359V127.784C38.144 133.672 36.4373 138.323 33.024 141.736C29.6107 145.235 24.8747 146.984 18.816 146.984H2ZM28.032 47.7839C24.8747 47.7839 22.144 46.6319 19.84 44.3279C17.536 42.0239 16.384 39.2932 16.384 36.1359C16.384 32.9785 17.536 30.2479 19.84 27.9439C22.144 25.5545 24.8747 24.3599 28.032 24.3599C31.1893 24.3599 33.92 25.5545 36.224 27.9439C38.528 30.2479 39.68 32.9785 39.68 36.1359C39.68 39.2932 38.528 42.0239 36.224 44.3279C33.92 46.6319 31.1893 47.7839 28.032 47.7839Z" fill="#1E1E24"></path>
</svg>